<svg width="35" height="9" viewBox="0 0 35 9" fill="none" xmlns="http://www.w3.org/2000/svg">
<path d="M14.7158 7.54382C13.0934 5.95559 13.3969 3.19923 15.6265 2.04136C16.5895 1.53927 17.7932 1.53927 18.7562 2.04136C20.9857 3.18899 21.2893 5.95559 19.6669 7.54382C19.5726 7.63604 19.4784 7.71801 19.3738 7.79999" stroke="#F47920" stroke-width="2" stroke-linecap="round" stroke-linejoin="round"/>
<path d="M2.29467 7.54382C0.672241 5.95559 0.975794 3.19923 3.20533 2.04136C4.16832 1.53927 5.37206 1.53928 6.33505 2.04136C8.56459 3.18899 8.86814 5.95559 7.24571 7.54382C7.1515 7.63604 7.0573 7.71801 6.95262 7.79999" stroke="#F47920" stroke-width="2" stroke-linecap="round" stroke-linejoin="round"/>
<path d="M27.1575 7.54382C25.535 5.95559 25.8386 3.19923 28.0681 2.04136C29.0311 1.53927 30.2349 1.53928 31.1978 2.04136C33.4274 3.18899 33.7309 5.95559 32.1085 7.54382C32.0143 7.63604 31.9201 7.71801 31.8154 7.79999" stroke="#F47920" stroke-width="2" stroke-linecap="round" stroke-linejoin="round"/>
</svg>
